<?xml version="1.0" encoding="utf-8"?>
<!-- Generator: Adobe Illustrator 27.3.1, SVG Export Plug-In . SVG Version: 6.00 Build 0)  -->
<svg version="1.1" id="Layer_1" xmlns="http://www.w3.org/2000/svg" xmlns:xlink="http://www.w3.org/1999/xlink" x="0px" y="0px"
	 viewBox="0 0 402.6 332.3" style="enable-background:new 0 0 402.6 332.3;" xml:space="preserve">
<style type="text/css">
	.st0{display:none;}
	.st1{fill:none;stroke:#B3B3B3;stroke-width:4;stroke-miterlimit:10;}
	.st2{fill:#4D4D4D;stroke:#CCCCCC;stroke-width:4;stroke-miterlimit:10;}
	.st3{fill:#F2F2F2;}
	.st4{fill:#B3B3B3;}
</style>
<g id="Layer_1_00000003798112043058206340000016594353651114020532_" class="st0">
</g>
<g id="Base_x5F_Rooms">
	<rect x="81.2" y="52.1" class="st1" width="236.3" height="136.5"/>
	<rect x="31.6" y="52.1" class="st1" width="35.9" height="68.2"/>
	<rect x="67.4" y="62.6" class="st1" width="13.8" height="13.3"/>
	<rect x="44.9" y="134.8" class="st1" width="36.3" height="44.7"/>
	<rect x="77.1" y="217.5" class="st1" width="36.8" height="66.2"/>
	<rect x="113.9" y="244.1" class="st1" width="13.8" height="10.7"/>
	<rect x="127.6" y="199.7" class="st1" width="38.6" height="130.6"/>
	<rect x="140.1" y="188.6" class="st1" width="13.7" height="11.1"/>
	<rect x="181.5" y="272.6" class="st1" width="37.4" height="57.7"/>
	<rect x="232.5" y="199.7" class="st1" width="38.6" height="130.6"/>
	<rect x="245" y="188.6" class="st1" width="13.7" height="11.1"/>
	<rect x="285.6" y="199.7" class="st1" width="81.5" height="65.3"/>
	<rect x="289.7" y="188.6" class="st1" width="13.7" height="11.1"/>
	<rect x="317.5" y="92.5" class="st1" width="13.7" height="13.3"/>
	<rect x="331.3" y="75.9" class="st1" width="27.6" height="109.8"/>
	<rect x="373" y="108.3" class="st1" width="27.6" height="26.7"/>
	<rect x="373" y="159" class="st1" width="27.6" height="26.7"/>
	<rect x="359.2" y="166.2" class="st1" width="13.8" height="13.4"/>
	<line class="st1" x1="147" y1="36.9" x2="147" y2="52.1"/>
	<line class="st1" x1="187.3" y1="21.5" x2="250" y2="21.5"/>
	<rect x="218.7" y="298.3" class="st1" width="13.7" height="11.1"/>
</g>
<g id="Camera_1A">
	<rect x="127" y="2" class="st2" width="59.1" height="34.9"/>
</g>
<g id="Camer_1C">
	<rect x="74.3" y="130.8" class="st2" width="59.1" height="34.9"/>
</g>
<g id="Camera_3">
	<rect x="44.8" y="226.7" class="st2" width="59.1" height="34.9"/>
</g>
<g id="Camera_2B">
	<rect x="127" y="280.8" class="st2" width="59.1" height="34.9"/>
</g>
<g id="Camera_6">
	<rect x="331.3" y="209.2" class="st2" width="59.1" height="34.9"/>
</g>
<g id="DisabledButton">
	<g id="Camera_1B">
		<rect x="107.1" y="54.6" class="st2" width="59.1" height="34.9"/>
		<rect x="2" y="81.6" class="st2" width="59.1" height="34.9"/>
		<g>
			<g>
				<path class="st3" d="M8.3,94.9H6.9v-6.9h1.4v-1.4h7.2v1.4h1.4v1.4H14v-1.4H9.7v6.9h4.3v-1.4h2.9v1.4h-1.4v1.4H8.3V94.9z"/>
				<path class="st3" d="M18.3,96.2v-6.9h1.4v-1.4h1.4v-1.4h4.3v1.4h1.4v1.4h1.4v6.9h-2.9v-2.8h-4.3v2.8H18.3z M25.5,92.1v-2.8h-1.4
					v-1.4h-1.4v1.4h-1.4v2.8H25.5z"/>
				<path class="st3" d="M29.8,96.2v-9.7h2.9v1.4h1.4v1.4h1.4v-1.4H37v-1.4h2.9v9.7H37v-5.6h-1.4V92h-1.4v-1.4h-1.4v5.6H29.8z"/>
				<path class="st3" d="M8.3,108.2H6.9v-1.4h2.9v1.4h4.3V104H6.9v-4.2h10.1v1.4H9.7v1.4h5.7v1.4h1.4v4.2h-1.4v1.4H8.3V108.2z"/>
			</g>
		</g>
		<rect x="127" y="241.5" class="st2" width="59.1" height="34.9"/>
		<g>
			<g>
				<path class="st3" d="M133.3,254.7h-1.4v-6.9h1.4v-1.4h7.2v1.4h1.4v1.4H139v-1.4h-4.3v6.9h4.3v-1.4h2.9v1.4h-1.4v1.4h-7.2V254.7z
					"/>
				<path class="st3" d="M143.4,256.1v-6.9h1.4v-1.4h1.4v-1.4h4.3v1.4h1.4v1.4h1.4v6.9h-2.9v-2.8h-4.3v2.8H143.4z M150.5,252v-2.8
					h-1.4v-1.4h-1.4v1.4h-1.4v2.8H150.5z"/>
				<path class="st3" d="M154.9,256.1v-9.7h2.9v1.4h1.4v1.4h1.4v-1.4h1.4v-1.4h2.9v9.7H162v-5.6h-1.4v1.4h-1.4v-1.4h-1.4v5.6H154.9z
					"/>
				<path class="st3" d="M131.9,269.4v-2.8h1.4v-1.4h1.4v-1.4h2.9v-1.4h1.4v-1.4h-4.3v1.4h-2.9v-1.4h1.4v-1.4h7.2v1.4h1.4v1.4h-1.4
					v1.4H139v1.4h-2.9v1.4h-1.4v1.4h7.2v1.4L131.9,269.4L131.9,269.4z"/>
				<path class="st3" d="M143.4,269.4v-6.9h1.4v-1.4h1.4v-1.4h4.3v1.4h1.4v1.4h1.4v6.9h-2.9v-2.8h-4.3v2.8H143.4z M150.5,265.3v-2.8
					h-1.4v-1.4h-1.4v1.4h-1.4v2.8H150.5z"/>
			</g>
		</g>
		<rect x="232.5" y="244.2" class="st2" width="59.1" height="34.9"/>
		<g>
			<g>
				<path class="st3" d="M238.8,257.4h-1.4v-6.9h1.4v-1.4h7.2v1.4h1.4v1.4h-2.9v-1.4h-4.3v6.9h4.3V256h2.9v1.4H246v1.4h-7.2V257.4z"
					/>
				<path class="st3" d="M248.9,258.8v-6.9h1.4v-1.4h1.4v-1.4h4.3v1.4h1.4v1.4h1.4v6.9H256V256h-4.3v2.8H248.9z M256,254.6v-2.8
					h-1.4v-1.4h-1.4v1.4h-1.4v2.8H256z"/>
				<path class="st3" d="M260.4,258.8V249h2.9v1.4h1.4v1.4h1.4v-1.4h1.4V249h2.9v9.7h-2.9v-5.6h-1.4v1.4h-1.4v-1.4h-1.4v5.6H260.4z"
					/>
				<path class="st3" d="M237.4,269.3v-2.8h1.4v-1.4h1.4v-1.4h1.4v-1.4h5.7v9.7h-2.9v-2.8L237.4,269.3L237.4,269.3z M244.5,267.9
					v-4.2h-1.4v1.4h-1.4v1.4h-1.4v1.4L244.5,267.9L244.5,267.9z"/>
				<path class="st3" d="M248.9,272.1v-6.9h1.4v-1.4h1.4v-1.4h4.3v1.4h1.4v1.4h1.4v6.9H256v-2.8h-4.3v2.8H248.9z M256,267.9v-2.8
					h-1.4v-1.4h-1.4v1.4h-1.4v2.8H256z"/>
			</g>
		</g>
		<rect x="234.7" y="282.2" class="st2" width="59.1" height="34.9"/>
		<g>
			<g>
				<path class="st3" d="M241,295.4h-1.4v-6.9h1.4v-1.4h7.2v1.4h1.4v1.4h-2.9v-1.4h-4.3v6.9h4.3V294h2.9v1.4h-1.5v1.4H241L241,295.4
					L241,295.4z"/>
				<path class="st3" d="M251.1,296.8v-6.9h1.4v-1.4h1.4v-1.4h4.3v1.4h1.4v1.4h1.4v6.9h-2.9V294h-4.3v2.8H251.1z M258.2,292.6v-2.8
					h-1.4v-1.4h-1.4v1.4h-1.5v2.8H258.2z"/>
				<path class="st3" d="M262.5,296.8V287h2.9v1.4h1.4v1.4h1.4v-1.4h1.4V287h2.9v9.7h-2.9v-5.6h-1.4v1.4h-1.4v-1.4h-1.4v5.6H262.5z"
					/>
				<path class="st3" d="M239.6,307.3v-2.8h1.4v-1.4h1.4v-1.4h1.4v-1.4h5.7v9.7h-2.9v-2.8L239.6,307.3L239.6,307.3z M246.7,305.9
					v-4.2h-1.4v1.4h-1.4v1.4h-1.5v1.4L246.7,305.9L246.7,305.9z"/>
				<path class="st3" d="M259.7,305.9h1.4v2.8h-1.4v1.4h-8.6v-9.7h8.6v1.4h1.4v2.8h-1.4V305.9z M253.9,304.5h4.3v-2.8h-4.3V304.5z
					 M258.2,308.7v-2.8h-4.3v2.8H258.2z"/>
			</g>
		</g>
		<rect x="340.8" y="82.4" class="st2" width="59.1" height="34.9"/>
		<g>
			<g>
				<path class="st3" d="M347.1,95.6h-1.4v-6.9h1.4v-1.4h7.2v1.4h1.4V90h-2.9v-1.4h-4.3v6.9h4.3v-1.4h2.9v1.4h-1.4v1.4h-7.2V95.6z"
					/>
				<path class="st3" d="M357.1,97v-6.9h1.4v-1.4h1.4v-1.4h4.3v1.4h1.4v1.4h1.4V97h-2.9v-2.8h-4.3V97H357.1z M364.3,92.8V90h-1.4
					v-1.4h-1.4V90H360v2.8H364.3z"/>
				<path class="st3" d="M368.6,97v-9.7h2.9v1.4h1.4V90h1.4v-1.4h1.4v-1.4h2.9V97h-2.9v-5.6h-1.4v1.4h-1.4v-1.4h-1.4V97H368.6z"/>
				<path class="st3" d="M348.5,102v1.4h-2.9v-2.8h10v2.8h-1.4v1.4h-1.4v1.4h-1.4v1.4H350v1.4h-1.4v1.4h-2.9v-1.4h1.4v-1.4h1.4v-1.4
					h1.4v-1.4h1.4v-1.4h1.4V102H348.5z"/>
			</g>
		</g>
	</g>
</g>
<g id="Camera_Words">
	<g>
		<g>
			<path class="st3" d="M133.9,15.2h-1.4V8.3h1.4V6.9h7.2v1.4h1.4v1.4h-2.9V8.3h-4.3v6.9h4.3v-1.4h2.9v1.4H141v1.4h-7.2V15.2z"/>
			<path class="st3" d="M143.9,16.6v-7h1.4V8.3h1.4V6.9h4.3v1.4h1.4v1.4h1.4v6.9h-2.9v-2.8h-4.3v2.8L143.9,16.6L143.9,16.6z
				 M151.1,12.4V9.6h-1.4V8.3h-1.5v1.4h-1.4v2.8H151.1z"/>
			<path class="st3" d="M155.4,16.6V6.9h2.9v1.4h1.4v1.4h1.4V8.2h1.4V6.9h2.9v9.7h-2.9V11h-1.4v1.4h-1.4V11h-1.4v5.6L155.4,16.6
				L155.4,16.6z"/>
			<path class="st3" d="M133.9,29.9v-1.4h2.9v-7h-2.9v-1.4h5.7v8.3h2.9v1.4H133.9z"/>
			<path class="st3" d="M143.9,29.9v-7h1.4v-1.4h1.4v-1.4h4.3v1.4h1.4V23h1.4v6.9h-2.9v-2.7h-4.3v2.8H143.9z M151.1,25.7V23h-1.4
				v-1.4h-1.5V23h-1.4v2.8H151.1z"/>
		</g>
	</g>
	<g>
		<g>
			<path class="st3" d="M113.4,67.9H112v-6.9h1.4v-1.4h7.2v1.4h1.4v1.4h-2.8v-1.4h-4.3v6.9h4.3v-1.4h2.9v1.4h-1.4v1.4h-7.2V67.9z"/>
			<path class="st3" d="M123.5,69.2v-6.9h1.4v-1.4h1.4v-1.4h4.4v1.4h1.4v1.4h1.4v6.9h-2.8v-2.8h-4.3v2.8H123.5z M130.7,65.1v-2.8
				h-1.4v-1.4h-1.4v1.4h-1.4v2.8H130.7z"/>
			<path class="st3" d="M135,69.2v-9.7h2.9v1.4h1.4v1.4h1.4v-1.4h1.4v-1.4h2.9v9.7h-2.8v-5.6h-1.4V65h-1.4v-1.4h-1.4v5.6H135z"/>
			<path class="st3" d="M113.4,82.5v-1.4h2.9v-6.9h-2.9v-1.4h5.7v8.3h2.9v1.4H113.4z"/>
			<path class="st3" d="M132.1,78.4h1.4v2.8h-1.4v1.4h-8.6v-9.7h8.6v1.4h1.4V77h-1.4V78.4z M126.3,77h4.3v-2.8h-4.3V77z M130.7,81.2
				v-2.8h-4.3v2.8H130.7z"/>
		</g>
	</g>
	<g>
		<g>
			<path class="st3" d="M82.6,144.4h-1.4v-6.9h1.4v-1.4h7.2v1.4h1.4v1.4h-2.9v-1.4h-4.3v6.9h4.3V143h2.9v1.4h-1.4v1.4h-7.2V144.4z"
				/>
			<path class="st3" d="M92.7,145.8v-6.9h1.4v-1.4h1.4v-1.4h4.3v1.4h1.4v1.4h1.4v6.9h-2.9V143h-4.3v2.8H92.7z M99.9,141.6v-2.8h-1.4
				v-1.4H97v1.4h-1.5v2.8H99.9z"/>
			<path class="st3" d="M104.2,145.8V136h2.9v1.4h1.4v1.4h1.4v-1.4h1.4V136h2.9v9.7h-2.9v-5.6h-1.4v1.4h-1.4v-1.4H107v5.6H104.2z"/>
			<path class="st3" d="M82.6,159.1v-1.4h2.9v-6.9h-2.9v-1.4h5.7v8.3h2.9v1.4L82.6,159.1L82.6,159.1z"/>
			<path class="st3" d="M94.1,157.7h-1.4v-6.9h1.4v-1.4h7.2v1.4h1.4v1.4h-2.9v-1.4h-4.3v6.9h4.3v-1.4h2.9v1.4h-1.5v1.4h-7.2V157.7z"
				/>
		</g>
	</g>
	<g>
		<g>
			<path class="st3" d="M50.9,240.1h-1.4v-6.9h1.4v-1.4h7.2v1.4h1.4v1.4h-2.9v-1.4h-4.3v6.9h4.3v-1.4h2.9v1.4h-1.4v1.4h-7.2V240.1z"
				/>
			<path class="st3" d="M61,241.5v-6.9h1.4v-1.4h1.4v-1.4h4.3v1.4h1.4v1.4H71v6.9h-2.9v-2.8h-4.3v2.8H61z M68.2,237.4v-2.8h-1.4
				v-1.4h-1.4v1.4h-1.4v2.8H68.2z"/>
			<path class="st3" d="M72.4,241.5v-9.7h2.9v1.4h1.4v1.4h1.4v-1.4h1.4v-1.4h2.9v9.7h-2.9V236h-1.4v1.4h-1.4V236h-1.4v5.6H72.4z"/>
			<path class="st3" d="M50.9,253.5h-1.4v-1.4h2.9v1.4h4.3v-2.8h-4.3v-1.4h4.3v-2.8h-4.3v1.4h-2.9v-1.4h1.4v-1.4h7.2v1.4h1.4v2.8
				h-1.4v1.4h1.4v2.8h-1.4v1.4h-7.2V253.5z"/>
		</g>
	</g>
	<g>
		<g>
			<path class="st3" d="M133.9,294.6h-1.4v-6.9h1.4v-1.4h7.2v1.4h1.4v1.4h-2.9v-1.4h-4.3v6.9h4.3v-1.4h2.9v1.4H141v1.4h-7.2V294.6z"
				/>
			<path class="st3" d="M143.9,296v-6.9h1.4v-1.4h1.4v-1.4h4.3v1.4h1.4v1.4h1.4v6.9h-2.9v-2.8h-4.3v2.8H143.9z M151.1,291.9v-2.8
				h-1.4v-1.4h-1.5v1.4h-1.4v2.8H151.1z"/>
			<path class="st3" d="M155.4,296v-9.7h2.9v1.4h1.4v1.4h1.4v-1.4h1.4v-1.4h2.9v9.7h-2.9v-5.6h-1.4v1.4h-1.4v-1.4h-1.4v5.6H155.4z"
				/>
			<path class="st3" d="M132.5,309.4v-2.8h1.4v-1.4h1.4v-1.4h2.9v-1.4h1.4v-1.4h-4.3v1.4h-2.9v-1.4h1.4v-1.4h7.2v1.4h1.4v1.4H141
				v1.4h-1.4v1.4h-2.8v1.4h-1.4v1.4h7.2v1.4L132.5,309.4L132.5,309.4z"/>
			<path class="st3" d="M152.6,305.2h1.4v2.8h-1.4v1.4h-8.6v-9.7h8.6v1.4h1.4v2.8h-1.4V305.2z M146.8,303.8h4.3V301h-4.3V303.8z
				 M151.1,308v-2.8h-4.3v2.8H151.1z"/>
		</g>
	</g>
	<g>
		<g>
			<path class="st3" d="M338.8,223.1h-1.4v-6.9h1.4v-1.4h7.2v1.4h1.4v1.4h-2.9v-1.4h-4.3v6.9h4.3v-1.4h2.9v1.4h-1.4v1.4h-7.2
				L338.8,223.1L338.8,223.1z"/>
			<path class="st3" d="M348.8,224.5v-6.9h1.4v-1.4h1.4v-1.4h4.3v1.4h1.4v1.4h1.4v6.9h-2.9v-2.8h-4.3v2.8H348.8z M356,220.4v-2.8
				h-1.4v-1.4h-1.4v1.4h-1.4v2.8H356z"/>
			<path class="st3" d="M360.3,224.5v-9.7h2.9v1.4h1.4v1.4h1.4v-1.4h1.4v-1.4h2.9v9.7h-2.9V219H366v1.4h-1.4V219h-1.4v5.6H360.3z"/>
			<path class="st3" d="M344.5,229.5h-4.3v2.8h5.7v1.4h1.4v2.8h-1.4v1.4h-7.2v-1.4h-1.4v-6.9h1.4v-1.4h7.2v1.4h1.4v1.4h-2.9
				L344.5,229.5L344.5,229.5z M340.2,236.5h4.3v-2.8h-4.3V236.5z"/>
		</g>
	</g>
	<g>
		<g>
			<path class="st4" d="M190.4,296.5h-1v-2.9h2v2.9h2v-2.9h2v2.9h-1v1h-1v2.9h-2v-2.9h-1V296.5z"/>
			<path class="st4" d="M197.5,299.4h-1v-4.9h1v-1h5.1v1h1v4.9h-1v1h-5.1V299.4z M198.5,299.4h3v-4.9h-3V299.4z"/>
			<path class="st4" d="M205.6,299.4h-1v-5.9h2v5.9h3v-5.9h2v5.9h-1v1h-5.1V299.4z"/>
		</g>
	</g>
</g>
</svg>
